<svg xmlns="http://www.w3.org/2000/svg" xmlns:xlink="http://www.w3.org/1999/xlink" width="1366" zoomAndPan="magnify" viewBox="0 0 1024.5 576" height="768" preserveAspectRatio="xMidYMid meet" version="1.0"><defs><clipPath id="042cbe6c51"><path d="M 306.382812 10.625 L 718.132812 10.625 L 718.132812 565.625 L 306.382812 565.625 Z M 306.382812 10.625 " clip-rule="nonzero"/></clipPath></defs><path fill="#f0d0b4" d="M 619.671875 540.964844 L 619.671875 556.628906 L 557.011719 556.628906 L 598.726562 481.714844 C 599.082031 482.074219 599.351562 482.433594 599.621094 482.789062 C 612.332031 498.988281 619.671875 519.21875 619.671875 540.964844 Z M 619.671875 540.964844 " fill-opacity="1" fill-rule="nonzero"/><path fill="#f0d0b4" d="M 458.550781 556.628906 L 404.84375 556.628906 L 404.84375 540.964844 C 404.84375 497.558594 434.382812 459.789062 476.453125 449.226562 L 483.523438 428.015625 C 492.746094 430.164062 502.320312 431.328125 512.257812 431.328125 C 522.191406 431.328125 531.769531 430.164062 540.992188 428.015625 L 548.0625 449.226562 L 467.503906 556.628906 Z M 458.550781 556.628906 " fill-opacity="1" fill-rule="nonzero"/><path fill="#e6e9ed" d="M 598.726562 481.714844 L 557.011719 556.628906 L 467.503906 556.628906 L 548.0625 449.226562 C 568.648438 454.417969 586.195312 466.054688 598.726562 481.714844 Z M 598.726562 481.714844 " fill-opacity="1" fill-rule="nonzero"/><path fill="#656d78" d="M 690.472656 171.144531 C 683.132812 165.953125 674.09375 162.820312 664.425781 162.820312 L 637.574219 162.820312 L 637.574219 153.871094 C 637.574219 129.167969 617.523438 109.121094 592.816406 109.121094 L 565.964844 109.121094 L 565.964844 118.070312 C 565.964844 93.367188 545.914062 73.320312 521.207031 73.320312 L 494.355469 73.320312 L 494.355469 91.21875 C 474.574219 91.21875 458.550781 107.238281 458.550781 127.019531 L 458.550781 109.121094 L 431.699219 109.121094 C 406.992188 109.121094 386.941406 129.167969 386.941406 153.871094 L 386.941406 162.820312 L 360.089844 162.820312 C 350.601562 162.820312 341.828125 165.773438 334.578125 170.785156 C 344.335938 85.132812 416.839844 19.617188 504.023438 19.617188 L 520.941406 19.617188 C 608.300781 19.617188 680.894531 85.3125 690.472656 171.144531 Z M 690.472656 171.144531 " fill-opacity="1" fill-rule="nonzero"/><path fill="#656d78" d="M 565.964844 135.96875 C 565.964844 148.320312 570.976562 159.507812 579.03125 167.652344 L 573.394531 173.292969 C 565.246094 181.4375 555.761719 187.703125 545.375 191.996094 C 534.992188 196.292969 523.714844 198.621094 512.257812 198.621094 C 489.34375 198.621094 467.324219 189.492188 451.121094 173.292969 L 445.484375 167.652344 C 453.539062 159.507812 458.550781 148.320312 458.550781 135.96875 L 458.550781 144.921875 L 485.402344 144.921875 C 495.519531 144.921875 504.738281 141.609375 512.257812 135.96875 C 519.6875 141.609375 528.996094 144.921875 539.109375 144.921875 L 565.964844 144.921875 Z M 565.964844 135.96875 " fill-opacity="1" fill-rule="nonzero"/><path fill="#f0d0b4" d="M 664.425781 234.421875 C 679.285156 234.421875 691.277344 246.414062 691.277344 261.273438 C 691.277344 268.703125 688.234375 275.414062 683.402344 280.246094 C 678.570312 285.078125 671.855469 288.125 664.425781 288.125 L 637.574219 288.125 L 637.574219 234.421875 Z M 664.425781 234.421875 " fill-opacity="1" fill-rule="nonzero"/><path fill="#f0d0b4" d="M 637.574219 288.125 L 637.574219 306.023438 C 637.574219 365.273438 596.398438 414.949219 540.992188 428.015625 C 531.769531 430.164062 522.191406 431.328125 512.257812 431.328125 C 502.320312 431.328125 492.746094 430.164062 483.523438 428.015625 C 460.429688 422.554688 439.84375 410.832031 423.640625 394.628906 C 400.996094 371.898438 386.941406 340.570312 386.941406 306.023438 L 386.941406 180.722656 L 413.796875 180.722656 C 426.148438 180.722656 437.335938 175.707031 445.484375 167.652344 L 451.121094 173.292969 C 467.324219 189.492188 489.34375 198.621094 512.257812 198.621094 C 523.714844 198.621094 534.992188 196.292969 545.375 191.996094 C 555.761719 187.703125 565.246094 181.4375 573.394531 173.292969 L 579.03125 167.652344 C 587.179688 175.707031 598.367188 180.722656 610.71875 180.722656 L 637.574219 180.722656 Z M 637.574219 288.125 " fill-opacity="1" fill-rule="nonzero"/><path fill="#f0d0b4" d="M 386.941406 234.421875 L 386.941406 288.125 L 360.089844 288.125 C 352.660156 288.125 345.945312 285.078125 341.113281 280.246094 C 336.277344 275.414062 333.234375 268.703125 333.234375 261.273438 C 333.234375 246.414062 345.230469 234.421875 360.089844 234.421875 Z M 386.941406 234.421875 " fill-opacity="1" fill-rule="nonzero"/><path fill="#ff826e" d="M 548.0625 341.824219 L 545.644531 351.578125 C 543.765625 359.1875 539.289062 365.722656 533.382812 370.375 C 527.472656 374.941406 520.132812 377.625 512.257812 377.625 C 496.503906 377.625 482.71875 366.886719 478.871094 351.578125 L 476.453125 341.824219 Z M 548.0625 341.824219 " fill-opacity="1" fill-rule="nonzero"/><path fill="#969faa" d="M 569.722656 310.589844 L 574.914062 341.824219 L 449.601562 341.824219 L 454.792969 310.589844 C 456.941406 297.609375 468.128906 288.125 481.285156 288.125 L 543.226562 288.125 C 556.386719 288.125 567.574219 297.609375 569.722656 310.589844 Z M 569.722656 310.589844 " fill-opacity="1" fill-rule="nonzero"/><path fill="#b4dd7f" d="M 682.328125 234.421875 C 657.625 234.421875 637.574219 214.375 637.574219 189.671875 L 637.574219 162.820312 L 664.425781 162.820312 C 674.09375 162.820312 683.132812 165.953125 690.472656 171.144531 L 690.472656 171.234375 C 701.753906 179.289062 709.179688 192.535156 709.179688 207.570312 L 709.179688 234.421875 Z M 682.328125 234.421875 " fill-opacity="1" fill-rule="nonzero"/><path fill="#b4dd7f" d="M 637.574219 162.820312 L 637.574219 180.722656 L 610.71875 180.722656 C 598.367188 180.722656 587.179688 175.707031 579.03125 167.652344 C 570.976562 159.507812 565.964844 148.320312 565.964844 135.96875 L 565.964844 109.121094 L 592.816406 109.121094 C 617.523438 109.121094 637.574219 129.167969 637.574219 153.871094 Z M 637.574219 162.820312 " fill-opacity="1" fill-rule="nonzero"/><path fill="#b4dd7f" d="M 565.964844 118.070312 L 565.964844 144.921875 L 539.109375 144.921875 C 528.996094 144.921875 519.6875 141.609375 512.257812 135.96875 C 501.425781 127.824219 494.355469 114.757812 494.355469 100.167969 L 494.355469 73.320312 L 521.207031 73.320312 C 545.914062 73.320312 565.964844 93.367188 565.964844 118.070312 Z M 565.964844 118.070312 " fill-opacity="1" fill-rule="nonzero"/><path fill="#b4dd7f" d="M 494.355469 100.167969 C 494.355469 114.757812 501.425781 127.824219 512.257812 135.96875 C 504.738281 141.609375 495.519531 144.921875 485.402344 144.921875 L 458.550781 144.921875 L 458.550781 127.019531 C 458.550781 107.238281 474.574219 91.21875 494.355469 91.21875 Z M 494.355469 100.167969 " fill-opacity="1" fill-rule="nonzero"/><path fill="#b4dd7f" d="M 458.550781 135.96875 C 458.550781 148.320312 453.539062 159.507812 445.484375 167.652344 C 437.335938 175.707031 426.148438 180.722656 413.796875 180.722656 L 386.941406 180.722656 L 386.941406 153.871094 C 386.941406 129.167969 406.992188 109.121094 431.699219 109.121094 L 458.550781 109.121094 Z M 458.550781 135.96875 " fill-opacity="1" fill-rule="nonzero"/><path fill="#b4dd7f" d="M 386.941406 189.671875 C 386.941406 214.375 366.890625 234.421875 342.1875 234.421875 L 315.332031 234.421875 L 315.332031 207.570312 C 315.332031 192.355469 322.941406 178.839844 334.578125 170.785156 C 341.828125 165.773438 350.601562 162.820312 360.089844 162.820312 L 386.941406 162.820312 Z M 386.941406 189.671875 " fill-opacity="1" fill-rule="nonzero"/><path fill="#000000" d="M 578.53125 309.09375 C 575.640625 291.746094 560.789062 279.171875 543.21875 279.171875 L 481.296875 279.171875 C 463.726562 279.171875 448.875 291.746094 445.984375 309.09375 L 439.027344 350.773438 L 469.460938 350.773438 L 470.207031 353.746094 C 475.046875 373.078125 492.332031 386.574219 512.257812 386.574219 C 532.183594 386.574219 549.46875 373.078125 554.300781 353.746094 L 555.042969 350.773438 L 585.476562 350.773438 Z M 521.207031 332.875 L 521.207031 297.074219 L 531.527344 297.074219 L 537.5 332.875 Z M 487.015625 332.875 L 492.984375 297.074219 L 503.304688 297.074219 L 503.304688 332.875 Z M 463.636719 312.027344 C 464.691406 305.691406 468.96875 300.652344 474.617188 298.390625 L 468.871094 332.875 L 460.171875 332.875 Z M 512.257812 368.675781 C 501.050781 368.675781 491.339844 361.355469 488.035156 350.773438 L 536.46875 350.773438 C 533.175781 361.355469 523.464844 368.675781 512.257812 368.675781 Z M 555.644531 332.875 L 549.898438 298.390625 C 555.546875 300.652344 559.824219 305.691406 560.878906 312.027344 L 564.34375 332.875 Z M 555.644531 332.875 " fill-opacity="1" fill-rule="nonzero"/><path fill="#000000" d="M 565.964844 225.472656 C 551.160156 225.472656 539.109375 237.519531 539.109375 252.324219 L 539.109375 261.273438 L 557.011719 261.273438 L 557.011719 252.324219 C 557.011719 247.382812 561.023438 243.371094 565.964844 243.371094 C 570.90625 243.371094 574.914062 247.382812 574.914062 252.324219 L 574.914062 261.273438 L 592.816406 261.273438 L 592.816406 252.324219 C 592.816406 237.519531 580.769531 225.472656 565.964844 225.472656 Z M 565.964844 225.472656 " fill-opacity="1" fill-rule="nonzero"/><path fill="#000000" d="M 449.601562 252.324219 C 449.601562 247.382812 453.609375 243.371094 458.550781 243.371094 C 463.492188 243.371094 467.503906 247.382812 467.503906 252.324219 L 467.503906 261.273438 L 485.402344 261.273438 L 485.402344 252.324219 C 485.402344 237.519531 473.355469 225.472656 458.550781 225.472656 C 443.746094 225.472656 431.699219 237.519531 431.699219 252.324219 L 431.699219 261.273438 L 449.601562 261.273438 Z M 449.601562 252.324219 " fill-opacity="1" fill-rule="nonzero"/><g clip-path="url(#042cbe6c51)"><path fill="#000000" d="M 718.132812 207.570312 C 718.132812 191.003906 710.585938 176.183594 698.761719 166.320312 C 686.910156 77.335938 611.238281 10.667969 520.96875 10.667969 L 504.023438 10.667969 C 413.957031 10.667969 338.320312 77.140625 326.28125 165.898438 C 314.152344 175.753906 306.382812 190.761719 306.382812 207.570312 L 306.382812 243.371094 L 329.261719 243.371094 C 326.183594 248.660156 324.285156 254.722656 324.285156 261.273438 C 324.285156 281.015625 340.34375 297.074219 360.089844 297.074219 L 377.992188 297.074219 L 377.992188 306.023438 C 377.992188 366.050781 417.601562 416.988281 472.058594 434.117188 L 469.472656 441.871094 C 425.90625 455 395.894531 495.035156 395.894531 540.929688 L 395.894531 565.578125 L 628.621094 565.578125 L 628.621094 540.929688 C 628.621094 495.035156 598.609375 454.992188 555.042969 441.871094 L 552.457031 434.117188 C 606.914062 416.988281 646.523438 366.050781 646.523438 306.023438 L 646.523438 297.074219 L 664.425781 297.074219 C 684.171875 297.074219 700.230469 281.015625 700.230469 261.273438 C 700.230469 254.722656 698.332031 248.660156 695.253906 243.371094 L 718.132812 243.371094 Z M 700.230469 212.816406 L 670.753906 183.34375 L 658.097656 196 L 687.574219 225.472656 L 682.328125 225.472656 C 662.582031 225.472656 646.523438 209.414062 646.523438 189.671875 L 646.523438 171.769531 L 664.425781 171.769531 C 684.171875 171.769531 700.230469 187.828125 700.230469 207.570312 Z M 425.371094 129.640625 L 395.894531 159.113281 L 395.894531 153.871094 C 395.894531 134.125 411.953125 118.070312 431.699219 118.070312 L 449.601562 118.070312 L 449.601562 135.96875 C 449.601562 155.714844 433.542969 171.769531 413.796875 171.769531 L 408.550781 171.769531 L 438.027344 142.296875 Z M 464.371094 153.871094 L 485.402344 153.871094 C 494.964844 153.871094 504.078125 151.285156 512.195312 146.566406 C 520.125 151.183594 529.300781 153.871094 539.109375 153.871094 L 560.144531 153.871094 C 561.828125 158.597656 564.128906 163.015625 566.992188 167.035156 C 552.367188 181.632812 532.933594 189.671875 512.257812 189.671875 C 491.582031 189.671875 472.148438 181.632812 457.523438 167.035156 C 460.386719 163.015625 462.6875 158.597656 464.371094 153.871094 Z M 467.503906 127.019531 C 467.503906 115.339844 475.046875 105.476562 485.484375 101.789062 C 485.851562 113.917969 490.21875 125.050781 497.363281 133.882812 C 493.558594 135.226562 489.546875 135.96875 485.402344 135.96875 L 467.503906 135.96875 Z M 557.011719 123.3125 L 527.535156 93.839844 L 514.878906 106.496094 L 544.355469 135.96875 L 539.109375 135.96875 C 519.363281 135.96875 503.304688 119.914062 503.304688 100.167969 L 503.304688 82.269531 L 521.207031 82.269531 C 540.953125 82.269531 557.011719 98.324219 557.011719 118.070312 Z M 574.914062 135.96875 L 574.914062 118.070312 L 592.816406 118.070312 C 612.5625 118.070312 628.621094 134.125 628.621094 153.871094 L 628.621094 159.113281 L 599.144531 129.640625 L 586.488281 142.296875 L 615.964844 171.769531 L 610.71875 171.769531 C 590.972656 171.769531 574.914062 155.714844 574.914062 135.96875 Z M 504.023438 28.566406 L 520.96875 28.566406 C 597.867188 28.566406 663.046875 82.269531 678.890625 155.902344 C 674.28125 154.613281 669.4375 153.871094 664.425781 153.871094 L 646.523438 153.871094 C 646.523438 124.253906 622.4375 100.167969 592.816406 100.167969 L 571.78125 100.167969 C 564.386719 79.34375 544.542969 64.367188 521.207031 64.367188 L 485.402344 64.367188 L 485.402344 83.171875 C 474.546875 85.382812 465.238281 91.640625 458.785156 100.167969 L 431.699219 100.167969 C 402.078125 100.167969 377.992188 124.253906 377.992188 153.871094 L 360.089844 153.871094 C 355.246094 153.871094 350.574219 154.566406 346.109375 155.777344 C 362.011719 82.222656 427.222656 28.566406 504.023438 28.566406 Z M 360.089844 171.769531 L 377.992188 171.769531 L 377.992188 189.671875 C 377.992188 209.414062 361.933594 225.472656 342.1875 225.472656 L 336.941406 225.472656 L 366.417969 196 L 353.761719 183.34375 L 324.285156 212.816406 L 324.285156 207.570312 C 324.285156 187.828125 340.34375 171.769531 360.089844 171.769531 Z M 360.089844 279.171875 C 350.214844 279.171875 342.1875 271.144531 342.1875 261.273438 C 342.1875 251.402344 350.214844 243.371094 360.089844 243.371094 L 377.992188 243.371094 L 377.992188 279.171875 Z M 610.71875 547.679688 L 572.222656 547.679688 L 599.496094 498.597656 C 606.65625 511.171875 610.71875 525.644531 610.71875 540.929688 Z M 587.859375 482.683594 L 551.75 547.679688 L 485.402344 547.679688 L 551.5 459.5625 C 565.714844 464.15625 578.128906 472.210938 587.859375 482.683594 Z M 538.089844 447.617188 L 467.503906 541.71875 L 467.503906 515.582031 C 467.503906 505.03125 463.394531 495.113281 455.929688 487.648438 L 443.273438 500.304688 C 447.351562 504.386719 449.601562 509.820312 449.601562 515.582031 L 449.601562 547.679688 L 413.796875 547.679688 L 413.796875 540.929688 C 413.796875 501.585938 440.460938 467.457031 478.621094 457.910156 L 483.390625 456.71875 L 489.558594 438.210938 C 496.953125 439.472656 504.507812 440.277344 512.257812 440.277344 C 520.007812 440.277344 527.5625 439.472656 534.957031 438.210938 Z M 628.621094 306.023438 C 628.621094 370.179688 576.417969 422.375 512.257812 422.375 C 448.097656 422.375 395.894531 370.179688 395.894531 306.023438 L 395.894531 189.671875 L 413.796875 189.671875 C 425.378906 189.671875 436.082031 185.949219 444.863281 179.691406 C 462.875 197.664062 486.800781 207.570312 512.257812 207.570312 C 537.714844 207.570312 561.640625 197.664062 579.648438 179.691406 C 588.429688 185.949219 599.136719 189.671875 610.71875 189.671875 L 628.621094 189.671875 Z M 664.425781 279.171875 L 646.523438 279.171875 L 646.523438 243.371094 L 664.425781 243.371094 C 674.300781 243.371094 682.328125 251.402344 682.328125 261.273438 C 682.328125 271.144531 674.300781 279.171875 664.425781 279.171875 Z M 664.425781 279.171875 " fill-opacity="1" fill-rule="nonzero"/></g></svg>